                                                                        S0000001
,,11HUnspecified,17HIGESTestModel.igs,19HCAD Exchanger 3.3.0,           G0000001
42HCAD Exchanger 3.3.0 (www.cadexchanger.com),32,308,15,308,15,         G0000002
11HUnspecified,1.,2,2HMM,1,0.01,15H20170524.101943,0.0001,,             G0000003
11HFani Melvan,,11,0,15H20170524.101943,;                               G0000004
     408       1       0       0       0       0       0       000000000D0000001
     408       0       0       1       0                               0D0000002
     308       2       0       0       0       0       0       000010200D0000003
     308       0       0       1       0                               0D0000004
     514       3       0       0       0       0       0       000010000D0000005
     514       0       0       1       1                               0D0000006
     510       4       0       0       0       0       0       000010000D0000007
     510       0       0       1       1                               0D0000008
     190       5       0       0       0       0       0       000010000D0000009
     190       0       0       1       1                               0D0000010
     116       6       0       0       0       0       0       000010400D0000011
     116       0       0       1       0                               0D0000012
     123       7       0       0       0       0       0       000010200D0000013
     123       0       0       1       0                               0D0000014
     123       8       0       0       0       0       0       000010200D0000015
     123       0       0       1       0                               0D0000016
     508       9       0       0       0       0       0       000010000D0000017
     508       0       0       1       1                               0D0000018
     504      10       0       0       0       0       0       000010001D0000019
     504       0       0       6       1                               0D0000020
     110      16       0       0       0       0       0       000010000D0000021
     110       0       0       1       0                               0D0000022
     502      17       0       0       0       0       0       000010000D0000023
     502       0       0      12       1                               0D0000024
     110      29       0       0       0       0       0       000010000D0000025
     110       0       0       1       0                               0D0000026
     110      30       0       0       0       0       0       000010000D0000027
     110       0       0       1       0                               0D0000028
     110      31       0       0       0       0       0       000010000D0000029
     110       0       0       1       0                               0D0000030
     110      32       0       0       0       0       0       000010000D0000031
     110       0       0       1       0                               0D0000032
     110      33       0       0       0       0       0       000010000D0000033
     110       0       0       2       0                               0D0000034
     110      35       0       0       0       0       0       000010000D0000035
     110       0       0       1       0                               0D0000036
     110      36       0       0       0       0       0       000010000D0000037
     110       0       0       1       0                               0D0000038
     110      37       0       0       0       0       0       000010000D0000039
     110       0       0       2       0                               0D0000040
     110      39       0       0       0       0       0       000010000D0000041
     110       0       0       1       0                               0D0000042
     110      40       0       0       0       0       0       000010000D0000043
     110       0       0       1       0                               0D0000044
     110      41       0       0       0       0       0       000010000D0000045
     110       0       0       2       0                               0D0000046
     110      43       0       0       0       0       0       000010000D0000047
     110       0       0       1       0                               0D0000048
     110      44       0       0       0       0       0       000010000D0000049
     110       0       0       1       0                               0D0000050
     110      45       0       0       0       0       0       000010000D0000051
     110       0       0       1       0                               0D0000052
     110      46       0       0       0       0       0       000010000D0000053
     110       0       0       1       0                               0D0000054
     110      47       0       0       0       0       0       000010000D0000055
     110       0       0       1       0                               0D0000056
     110      48       0       0       0       0       0       000010000D0000057
     110       0       0       2       0                               0D0000058
     110      50       0       0       0       0       0       000010000D0000059
     110       0       0       2       0                               0D0000060
     110      52       0       0       0       0       0       000010000D0000061
     110       0       0       2       0                               0D0000062
     110      54       0       0       0       0       0       000010000D0000063
     110       0       0       2       0                               0D0000064
     110      56       0       0       0       0       0       000010000D0000065
     110       0       0       2       0                               0D0000066
     110      58       0       0       0       0       0       000010000D0000067
     110       0       0       2       0                               0D0000068
     110      60       0       0       0       0       0       000010000D0000069
     110       0       0       2       0                               0D0000070
     514      62       0       0       0       0       0       000010000D0000071
     514       0       0       1       1                               0D0000072
     510      63       0       0       0       0       0       000010000D0000073
     510       0       0       1       1                               0D0000074
     190      64       0       0       0       0       0       000010000D0000075
     190       0       0       1       1                               0D0000076
     116      65       0       0       0       0       0       000010400D0000077
     116       0       0       1       0                               0D0000078
     123      66       0       0       0       0       0       000010200D0000079
     123       0       0       1       0                               0D0000080
     123      67       0       0       0       0       0       000010200D0000081
     123       0       0       1       0                               0D0000082
     508      68       0       0       0       0       0       000010000D0000083
     508       0       0       1       1                               0D0000084
     514      69       0       0       0       0       0       000010000D0000085
     514       0       0       1       1                               0D0000086
     510      70       0       0       0       0       0       000010000D0000087
     510       0       0       1       1                               0D0000088
     190      71       0       0       0       0       0       000010000D0000089
     190       0       0       1       1                               0D0000090
     116      72       0       0       0       0       0       000010400D0000091
     116       0       0       1       0                               0D0000092
     123      73       0       0       0       0       0       000010200D0000093
     123       0       0       1       0                               0D0000094
     123      74       0       0       0       0       0       000010200D0000095
     123       0       0       1       0                               0D0000096
     508      75       0       0       0       0       0       000010000D0000097
     508       0       0       1       1                               0D0000098
     514      76       0       0       0       0       0       000010000D0000099
     514       0       0       1       1                               0D0000100
     510      77       0       0       0       0       0       000010000D0000101
     510       0       0       1       1                               0D0000102
     190      78       0       0       0       0       0       000010000D0000103
     190       0       0       1       1                               0D0000104
     116      79       0       0       0       0       0       000010400D0000105
     116       0       0       1       0                               0D0000106
     123      80       0       0       0       0       0       000010200D0000107
     123       0       0       1       0                               0D0000108
     123      81       0       0       0       0       0       000010200D0000109
     123       0       0       1       0                               0D0000110
     508      82       0       0       0       0       0       000010000D0000111
     508       0       0       1       1                               0D0000112
     514      83       0       0       0       0       0       000010000D0000113
     514       0       0       1       1                               0D0000114
     510      84       0       0       0       0       0       000010000D0000115
     510       0       0       1       1                               0D0000116
     190      85       0       0       0       0       0       000010000D0000117
     190       0       0       1       1                               0D0000118
     116      86       0       0       0       0       0       000010400D0000119
     116       0       0       1       0                               0D0000120
     123      87       0       0       0       0       0       000010200D0000121
     123       0       0       1       0                               0D0000122
     123      88       0       0       0       0       0       000010200D0000123
     123       0       0       1       0                               0D0000124
     508      89       0       0       0       0       0       000010000D0000125
     508       0       0       1       1                               0D0000126
     514      90       0       0       0       0       0       000010000D0000127
     514       0       0       1       1                               0D0000128
     510      91       0       0       0       0       0       000010000D0000129
     510       0       0       1       1                               0D0000130
     190      92       0       0       0       0       0       000010000D0000131
     190       0       0       1       1                               0D0000132
     116      93       0       0       0       0       0       000010400D0000133
     116       0       0       1       0                               0D0000134
     123      94       0       0       0       0       0       000010200D0000135
     123       0       0       1       0                               0D0000136
     123      95       0       0       0       0       0       000010200D0000137
     123       0       0       1       0                               0D0000138
     508      96       0       0       0       0       0       000010000D0000139
     508       0       0       1       1                               0D0000140
     514      97       0       0       0       0       0       000010000D0000141
     514       0       0       1       1                               0D0000142
     510      98       0       0       0       0       0       000010000D0000143
     510       0       0       1       1                               0D0000144
     190      99       0       0       0       0       0       000010000D0000145
     190       0       0       1       1                               0D0000146
     116     100       0       0       0       0       0       000010400D0000147
     116       0       0       1       0                               0D0000148
     123     101       0       0       0       0       0       000010200D0000149
     123       0       0       1       0                               0D0000150
     123     102       0       0       0       0       0       000010200D0000151
     123       0       0       1       0                               0D0000152
     508     103       0       0       0       0       0       000010000D0000153
     508       0       0       1       1                               0D0000154
     514     104       0       0       0       0       0       000010000D0000155
     514       0       0       1       1                               0D0000156
     510     105       0       0       0       0       0       000010000D0000157
     510       0       0       1       1                               0D0000158
     190     106       0       0       0       0       0       000010000D0000159
     190       0       0       1       1                               0D0000160
     116     107       0       0       0       0       0       000010400D0000161
     116       0       0       1       0                               0D0000162
     123     108       0       0       0       0       0       000010200D0000163
     123       0       0       1       0                               0D0000164
     123     109       0       0       0       0       0       000010200D0000165
     123       0       0       1       0                               0D0000166
     508     110       0       0       0       0       0       000010000D0000167
     508       0       0       1       1                               0D0000168
408,3,0.E+000,0.E+000,0.E+000,;                                  0000001P0000001
308,1,,8,5,71,85,99,113,127,141,155;                             0000003P0000002
514,1,7,1;                                                       0000005P0000003
510,9,1,0,17;                                                    0000007P0000004
190,11,13,15;                                                    0000009P0000005
116,0.E+000,1.,0.E+000,0;                                        0000011P0000006
123,0.34740793,0.838716987,0.419358493;                          0000013P0000007
123,0.E+000,-0.447213595,0.894427191;                            0000015P0000008
508,3,0,19,1,1,0,0,19,2,1,0,0,19,3,1,0;                          0000017P0000009
504,24,21,23,1,23,2,25,23,2,23,3,27,23,3,23,1,29,23,4,23,5,31,   0000019P0000010
23,5,23,6,33,23,6,23,4,35,23,7,23,8,37,23,8,23,9,39,23,9,23,7,   0000019P0000011
41,23,10,23,11,43,23,11,23,12,45,23,12,23,10,47,23,13,23,14,49,  0000019P0000012
23,14,23,15,51,23,15,23,13,53,23,16,23,17,55,23,17,23,18,57,23,  0000019P0000013
18,23,16,59,23,19,23,20,61,23,20,23,21,63,23,21,23,19,65,23,22,  0000019P0000014
23,23,67,23,23,23,24,69,23,24,23,22;                             0000019P0000015
110,0.E+000,1.,0.E+000,0.E+000,0.E+000,2.;                       0000021P0000016
502,24,0.E+000,1.,0.E+000,0.E+000,0.E+000,2.,0.707106709,        0000023P0000017
0.707106829,0.E+000,0.707106709,0.707106829,0.E+000,0.E+000,     0000023P0000018
0.E+000,2.,1.,-4.371138829E-008,0.E+000,1.,-4.371138829E-008,    0000023P0000019
0.E+000,0.E+000,0.E+000,2.,0.707106709,-0.707106829,0.E+000,     0000023P0000020
0.707106709,-0.707106829,0.E+000,0.E+000,0.E+000,2.,             0000023P0000021
3.178650587E-008,-1.,0.E+000,0.E+000,1.,0.E+000,                 0000023P0000022
3.178650587E-008,-1.,0.E+000,0.E+000,0.E+000,2.,                 0000023P0000023
3.178650587E-008,-1.,0.E+000,0.E+000,1.,0.E+000,0.707106709,     0000023P0000024
0.707106829,0.E+000,0.707106709,0.707106829,0.E+000,1.,          0000023P0000025
-4.371138829E-008,0.E+000,0.707106709,-0.707106829,0.E+000,      0000023P0000026
0.707106709,0.707106829,0.E+000,0.707106709,-0.707106829,        0000023P0000027
0.E+000,3.178650587E-008,-1.,0.E+000;                            0000023P0000028
110,0.E+000,0.E+000,2.,0.707106709,0.707106829,0.E+000;          0000025P0000029
110,0.707106709,0.707106829,0.E+000,0.E+000,1.,0.E+000;          0000027P0000030
110,0.707106709,0.707106829,0.E+000,0.E+000,0.E+000,2.;          0000029P0000031
110,0.E+000,0.E+000,2.,1.,-4.371138829E-008,0.E+000;             0000031P0000032
110,1.,-4.371138829E-008,0.E+000,0.707106709,0.707106829,        0000033P0000033
0.E+000;                                                         0000033P0000034
110,1.,-4.371138829E-008,0.E+000,0.E+000,0.E+000,2.;             0000035P0000035
110,0.E+000,0.E+000,2.,0.707106709,-0.707106829,0.E+000;         0000037P0000036
110,0.707106709,-0.707106829,0.E+000,1.,-4.371138829E-008,       0000039P0000037
0.E+000;                                                         0000039P0000038
110,0.707106709,-0.707106829,0.E+000,0.E+000,0.E+000,2.;         0000041P0000039
110,0.E+000,0.E+000,2.,3.178650587E-008,-1.,0.E+000;             0000043P0000040
110,3.178650587E-008,-1.,0.E+000,0.707106709,-0.707106829,       0000045P0000041
0.E+000;                                                         0000045P0000042
110,0.E+000,1.,0.E+000,3.178650587E-008,-1.,0.E+000;             0000047P0000043
110,3.178650587E-008,-1.,0.E+000,0.E+000,0.E+000,2.;             0000049P0000044
110,0.E+000,0.E+000,2.,0.E+000,1.,0.E+000;                       0000051P0000045
110,3.178650587E-008,-1.,0.E+000,0.E+000,1.,0.E+000;             0000053P0000046
110,0.E+000,1.,0.E+000,0.707106709,0.707106829,0.E+000;          0000055P0000047
110,0.707106709,0.707106829,0.E+000,3.178650587E-008,-1.,        0000057P0000048
0.E+000;                                                         0000057P0000049
110,0.707106709,0.707106829,0.E+000,1.,-4.371138829E-008,        0000059P0000050
0.E+000;                                                         0000059P0000051
110,1.,-4.371138829E-008,0.E+000,0.707106709,-0.707106829,       0000061P0000052
0.E+000;                                                         0000061P0000053
110,0.707106709,-0.707106829,0.E+000,0.707106709,0.707106829,    0000063P0000054
0.E+000;                                                         0000063P0000055
110,0.707106709,0.707106829,0.E+000,0.707106709,-0.707106829,    0000065P0000056
0.E+000;                                                         0000065P0000057
110,0.707106709,-0.707106829,0.E+000,3.178650587E-008,-1.,       0000067P0000058
0.E+000;                                                         0000067P0000059
110,3.178650587E-008,-1.,0.E+000,0.707106709,0.707106829,        0000069P0000060
0.E+000;                                                         0000069P0000061
514,1,73,1;                                                      0000071P0000062
510,75,1,0,83;                                                   0000073P0000063
190,77,79,81;                                                    0000075P0000064
116,0.707106709,0.707106829,0.E+000,0;                           0000077P0000065
123,0.838716972,0.347407985,0.419358478;                         0000079P0000066
123,-0.316227735,-0.316227788,0.894427194;                       0000081P0000067
508,3,0,19,4,1,0,0,19,5,1,0,0,19,6,1,0;                          0000083P0000068
514,1,87,1;                                                      0000085P0000069
510,89,1,0,97;                                                   0000087P0000070
190,91,93,95;                                                    0000089P0000071
116,1.,-4.371138829E-008,0.E+000,0;                              0000091P0000072
123,0.838716954,-0.34740802,0.419358485;                         0000093P0000073
123,-0.447213595,1.954832715E-008,0.894427191;                   0000095P0000074
508,3,0,19,7,1,0,0,19,8,1,0,0,19,9,1,0;                          0000097P0000075
514,1,101,1;                                                     0000099P0000076
510,103,1,0,111;                                                 0000101P0000077
190,105,107,109;                                                 0000103P0000078
116,0.707106709,-0.707106829,0.E+000,0;                          0000105P0000079
123,0.347407943,-0.83871698,0.419358496;                         0000107P0000080
123,-0.316227735,0.316227788,0.894427194;                        0000109P0000081
508,3,0,19,10,1,0,0,19,11,1,0,0,19,12,1,0;                       0000111P0000082
514,1,115,1;                                                     0000113P0000083
510,117,1,0,125;                                                 0000115P0000084
190,119,121,123;                                                 0000117P0000085
116,0.E+000,1.,0.E+000,0;                                        0000119P0000086
123,-1.,-1.589325294E-008,-7.946626468E-009;                     0000121P0000087
123,1.589325294E-008,-1.,0.E+000;                                0000123P0000088
508,3,0,19,13,1,0,0,19,14,1,0,0,19,15,1,0;                       0000125P0000089
514,1,129,1;                                                     0000127P0000090
510,131,1,0,139;                                                 0000129P0000091
190,133,135,137;                                                 0000131P0000092
116,3.178650587E-008,-1.,0.E+000,0;                              0000133P0000093
123,0.E+000,0.E+000,-1.;                                         0000135P0000094
123,-1.589325294E-008,1.,0.E+000;                                0000137P0000095
508,3,0,19,16,1,0,0,19,17,1,0,0,19,18,1,0;                       0000139P0000096
514,1,143,1;                                                     0000141P0000097
510,145,1,0,153;                                                 0000143P0000098
190,147,149,151;                                                 0000145P0000099
116,0.707106709,0.707106829,0.E+000,0;                           0000147P0000100
123,0.E+000,0.E+000,-1.;                                         0000149P0000101
123,0.38268347,-0.923879517,0.E+000;                             0000151P0000102
508,3,0,19,19,1,0,0,19,20,1,0,0,19,21,1,0;                       0000153P0000103
514,1,157,1;                                                     0000155P0000104
510,159,1,0,167;                                                 0000157P0000105
190,161,163,165;                                                 0000159P0000106
116,0.707106709,0.707106829,0.E+000,0;                           0000161P0000107
123,0.E+000,-0.E+000,-1.;                                        0000163P0000108
123,0.E+000,-1.,0.E+000;                                         0000165P0000109
508,3,0,19,22,1,0,0,19,23,1,0,0,19,24,1,0;                       0000167P0000110
S      1G      4D    168P    110                                        T0000001
